{"glyphs":{":":{"x_min":0,"x_max":528,"ha":528,"o":"m 200 215 b 174 215 153 194 153 168 b 153 142 174 120 200 120 b 226 120 247 142 247 168 b 247 194 226 215 200 215 z m 209 539 b 235 539 256 560 256 586 b 256 612 235 633 209 633 b 183 633 161 612 161 586 b 161 560 183 539 209 539 z"},"$":{"x_min":0,"x_max":630,"ha":630,"o":"m 452 434 b 422 502 362 549 312 602 b 319 693 326 784 334 876 b 397 852 377 755 343 704 l 352 698 b 393 760 410 866 335 890 l 341 958 l 284 961 b 283 939 281 916 279 894 b 216 885 162 833 148 771 b 130 692 188 622 250 555 l 213 118 b 46 121 28 353 121 431 l 115 440 b 2 359 34 107 212 102 l 205 21 l 265 21 b 267 50 269 78 272 107 b 425 136 516 289 452 434 z m 273 127 b 284 251 293 375 303 499 b 325 475 344 452 358 429 b 425 317 392 164 273 127 z m 260 667 b 242 697 229 730 227 771 b 224 817 236 866 278 878 z"},"?":{"x_min":0,"x_max":686,"ha":686,"o":"m 202 68 b 176 68 155 47 155 21 b 155 -5 176 -27 202 -27 b 228 -27 249 -5 249 21 b 249 47 228 68 202 68 z m 387 1124 b 178 1120 86 907 138 720 l 152 724 b 103 897 192 1115 387 1110 b 508 1106 538 925 525 830 b 488 558 191 331 195 120 l 209 120 b 248 315 584 556 626 827 b 652 991 567 1127 387 1124 z"},"<":{"x_min":0,"x_max":833,"ha":833,"o":"m 237 328 b 205 303 215 284 247 265 b 350 208 458 155 563 100 l 576 144 b 476 196 373 247 276 301 b 367 370 456 443 546 515 l 511 544 b 420 472 330 397 237 328 z"},"=":{"x_min":0,"x_max":538,"ha":538,"o":"m 118 381 b 225 381 332 382 439 382 l 439 418 b 332 418 225 417 118 417 l 118 381 z m 118 526 l 118 490 b 225 490 332 491 439 491 l 439 527 b 332 527 225 526 118 526 z"},"a":{"x_min":0,"x_max":539,"ha":539,"o":"m 539 317 b 519 185 471 12 381 18 b 314 22 354 338 362 424 b 366 459 277 460 273 429 l 270 409 b 244 432 212 449 175 451 b -63 460 -117 0 92 0 b 158 0 217 87 258 165 b 267 75 296 0 373 0 b 485 0 535 179 554 317 z m 257 194 b 215 116 150 9 97 15 b 9 27 60 427 181 434 b 212 436 243 416 268 392 b 261 337 254 263 257 194 z"},"L":{"x_min":0,"x_max":695,"ha":695,"o":"m 703 91 b 577 -70 401 64 224 111 b 263 208 273 362 282 515 b 422 548 519 673 537 814 b 549 904 518 1000 412 1000 b 207 999 194 667 188 524 b 162 528 138 537 116 550 b 56 587 14 661 14 777 l 0 777 b 0 655 45 577 108 538 b 132 523 159 514 187 510 b 181 362 184 215 169 122 b 151 125 127 128 106 126 b 62 121 40 96 39 70 b 38 41 63 12 109 11 b 154 11 187 37 211 81 b 382 1 550 -193 715 83 z m 413 986 b 509 988 533 894 523 815 b 506 682 415 563 282 530 b 287 614 286 983 413 986 z m 109 25 b 71 26 52 49 54 71 b 55 91 72 110 105 111 b 126 111 148 105 165 100 b 154 53 137 25 109 25 z"},"3":{"x_min":0,"x_max":668,"ha":668,"o":"m 389 494 b 522 535 621 640 605 785 b 594 884 522 952 387 948 b 232 943 165 794 174 654 l 188 655 b 180 785 242 930 388 934 b 481 937 510 860 512 780 b 514 661 451 535 331 499 b 320 496 323 479 334 481 b 540 514 507 12 227 13 b 96 14 42 123 39 240 l 25 240 b 28 115 88 0 227 -1 b 594 -1 676 450 389 494 z"},";":{"x_min":0,"x_max":394,"ha":394,"o":"m 129 205 b 105 213 78 198 70 176 b 62 150 77 119 107 123 b 103 110 80 80 74 74 l 85 64 b 166 156 156 197 129 205 z m 135 562 b 109 562 88 541 88 515 b 88 489 109 468 135 468 b 161 468 183 489 183 515 b 183 541 161 562 135 562 z"},"J":{"x_min":0,"x_max":563,"ha":563,"o":"m 614 978 b 606 995 579 1006 543 997 b 488 984 452 944 428 895 b 290 882 108 853 47 730 b -5 625 37 449 177 454 l 177 468 b 46 463 14 629 61 724 b 119 842 290 868 422 880 b 368 770 368 457 337 187 b 199 198 76 121 23 -6 b -17 -103 -18 -274 125 -275 b 342 -277 404 -27 428 144 b 488 109 525 48 545 -17 l 558 -13 b 536 58 497 123 430 159 b 466 431 442 754 470 885 b 592 899 628 948 614 978 z m 543 983 b 571 992 593 986 601 973 b 614 952 585 914 474 900 b 485 937 503 970 543 983 z m 126 -261 b -6 -264 2 -95 36 -11 b 87 109 204 184 335 173 b 321 59 286 -257 126 -261 z"},"V":{"x_min":0,"x_max":776,"ha":776,"o":"m 689 1185 l 677 1176 b 864 905 580 27 460 32 b 328 38 633 1092 205 1051 b -27 1028 -46 693 67 630 l 74 642 b -29 708 3 1019 207 1037 b 480 1060 215 -1 447 0 b 633 1 881 917 689 1185 z"},"7":{"x_min":0,"x_max":552,"ha":552,"o":"m 562 945 b 561 943 560 941 558 940 b 461 947 104 981 105 833 l 119 833 b 118 870 441 907 539 915 b 383 733 8 178 13 0 l 111 0 b 106 180 472 761 574 936 b 578 944 567 951 562 945 z"},"S":{"x_min":0,"x_max":630,"ha":630,"o":"m 506 415 b 435 576 235 643 223 838 b 219 906 239 981 316 981 b 357 981 398 955 407 909 b 416 859 395 795 369 755 l 380 747 b 411 794 432 858 423 909 b 412 970 366 994 314 995 b 224 995 143 925 124 839 b 87 676 308 542 387 410 b 485 248 414 12 205 15 b -3 18 -41 317 91 412 l 83 423 b -59 321 -19 5 206 0 b 440 -5 595 212 506 415 z"},"}":{"x_min":0,"x_max":432,"ha":432,"o":"m 289 562 b 147 610 310 1037 46 1001 l 48 972 b 155 963 75 639 239 552 b 45 464 207 48 80 38 l 82 2 b 365 -14 131 482 290 535 z"},"Z":{"x_min":0,"x_max":693,"ha":693,"o":"m 600 -98 b 640 77 527 274 234 285 b 713 414 757 1018 330 1007 b 113 1001 -87 749 39 550 l 51 558 b -68 746 126 990 329 992 b 635 994 594 359 147 283 b 138 282 138 266 150 268 b 383 278 499 136 513 -16 b 396 50 197 18 100 -84 b -9 -199 49 -377 220 -375 b 385 -373 548 -282 596 -117 b 611 -142 623 -171 631 -204 l 645 -201 b 635 -161 619 -127 600 -98 z m 220 -361 b 62 -364 10 -199 111 -93 b 204 6 403 36 514 -33 b 521 -208 400 -358 220 -361 z"},"x":{"x_min":0,"x_max":353,"ha":353,"o":"m 353 317 b 343 253 298 22 209 22 b 175 22 135 136 102 250 b 168 328 225 409 213 506 l 199 505 b 210 416 159 341 98 267 b 73 355 53 439 45 466 b 36 496 -57 476 -46 435 b -34 386 -9 281 29 186 b -19 127 -51 67 -61 1 l -47 -2 b -38 60 -10 116 35 171 b 74 78 125 -1 189 0 b 315 1 357 236 368 317 z"},")":{"x_min":0,"x_max":528,"ha":528,"o":"m 113 1007 l 105 994 b 350 826 263 221 42 21 l 49 9 b 397 200 467 872 113 1007 z"},"&":{"x_min":0,"x_max":751,"ha":751,"o":"m 459 387 b 448 410 429 434 404 434 l 404 423 b 421 423 435 408 443 393 b 390 412 327 395 301 335 b 275 272 304 200 373 209 b 444 217 487 298 464 371 b 593 292 525 38 345 41 b 129 41 168 492 386 452 l 387 466 b 246 500 246 775 419 778 b 477 778 531 739 525 663 b 520 592 460 527 386 596 l 380 588 b 461 511 528 584 535 662 b 542 747 486 786 419 789 b 218 797 123 546 326 467 b 86 449 61 34 345 30 b 543 27 607 313 459 387 z m 372 219 b 311 212 287 275 310 331 b 335 389 400 401 450 379 b 479 309 441 228 372 219 z"},"_":{"x_min":0,"x_max":619,"ha":619,"o":"m 52 95 l 52 59 b 159 59 286 60 393 60 l 393 95 z"},"v":{"x_min":0,"x_max":356,"ha":356,"o":"m 289 528 b 289 428 252 173 169 65 b 144 33 123 18 106 18 b 33 20 93 367 94 423 b 94 454 -4 463 -6 422 b -11 330 -61 2 86 0 b 239 -3 304 385 304 528 z"},"O":{"x_min":0,"x_max":716,"ha":716,"o":"m 308 971 b 83 970 -65 680 28 492 b -1 284 66 12 319 10 b 690 7 811 973 308 971 z m 320 24 b 156 25 117 293 113 413 b 178 391 256 414 278 484 l 264 488 b 244 424 171 406 113 428 b 111 566 136 709 182 804 b 185 809 175 819 169 812 b 99 738 52 630 32 518 b -34 701 100 957 309 957 b 704 956 548 22 320 24 z"},"(":{"x_min":0,"x_max":567,"ha":567,"o":"m 509 994 l 504 1007 b 126 872 79 200 394 9 l 403 21 b 217 221 235 826 509 994 z"},"C":{"x_min":0,"x_max":620,"ha":620,"o":"m 620 298 b 546 183 457 14 299 15 b -27 18 69 948 392 941 b 593 937 619 628 388 628 l 388 613 b 630 613 621 948 391 957 b -84 976 -140 -1 299 0 b 464 0 555 169 632 290 z"},"W":{"x_min":0,"x_max":1099,"ha":1099,"o":"m 1006 1185 l 994 1176 b 1187 909 913 22 779 27 b 699 30 780 428 758 728 b 755 774 658 768 653 732 b 639 635 549 17 450 16 b 353 15 619 1091 205 1051 b -27 1028 -46 693 67 630 l 75 643 b -29 709 3 1017 207 1035 b 480 1058 215 -1 447 0 b 549 0 632 499 660 680 b 665 380 625 -1 764 0 b 942 1 1199 917 1006 1185 z"},"A":{"x_min":0,"x_max":785,"ha":785,"o":"m 785 317 b 776 257 737 50 652 51 b 550 52 588 865 581 992 b 581 1001 519 1004 518 992 l 516 978 b 417 917 334 620 297 507 b 233 511 172 498 130 456 l 140 446 b 180 486 238 496 293 493 b 253 370 151 14 0 14 l 0 0 b 162 0 265 362 307 492 l 312 492 b 371 486 434 466 488 440 b 488 432 488 424 489 415 b 496 209 535 31 650 36 b 752 41 789 241 800 317 z m 487 456 b 436 480 373 500 313 506 l 312 506 b 347 615 426 895 515 960 b 505 858 484 649 487 456 z"},"f":{"x_min":0,"x_max":291,"ha":291,"o":"m 291 317 b 290 316 290 314 290 313 b 276 234 152 167 80 156 b 87 267 94 363 95 401 b 189 510 279 671 284 819 b 286 887 273 965 211 967 b 58 972 13 655 -4 449 b -15 315 -75 -367 111 -358 b 164 -355 178 -293 181 -250 b 189 -135 142 38 86 143 b 164 156 291 228 305 313 b 305 314 306 316 306 317 z m 212 952 b 262 953 272 881 269 817 b 264 676 184 530 95 424 b 97 506 111 949 212 952 z m 167 -249 b 165 -280 153 -344 112 -344 b 41 -345 76 80 78 128 b 129 29 175 -136 167 -249 z"},"Q":{"x_min":0,"x_max":705,"ha":705,"o":"m 672 -56 b 584 -47 521 13 464 64 b 712 268 738 972 308 970 b 83 970 -65 680 28 491 b -1 284 66 11 319 9 b 352 9 383 17 412 31 b 467 -18 542 -72 673 -70 z m 243 106 l 252 94 b 306 130 340 98 389 52 b 367 34 344 23 320 24 b 156 25 117 293 113 413 b 178 391 256 413 278 483 l 264 488 b 244 424 171 406 113 428 b 111 566 136 709 182 803 b 185 809 175 818 169 812 b 99 737 52 630 32 517 b -34 701 100 957 309 956 b 636 956 585 314 428 95 b 372 140 317 163 243 106 z"},"w":{"x_min":0,"x_max":621,"ha":621,"o":"m 555 528 b 555 428 518 173 435 65 b 410 33 389 18 372 18 b 299 20 359 333 360 389 b 360 420 262 429 260 388 b 259 362 254 322 251 276 b 225 192 172 26 120 30 b 56 34 90 391 91 423 b 92 454 -4 463 -6 422 b -11 323 -58 2 89 0 b 171 -1 218 116 248 214 b 246 109 263 1 352 0 b 505 -3 569 385 569 528 z"},"-":{"x_min":0,"x_max":614,"ha":614,"o":"m 80 359 l 80 321 b 187 321 275 322 382 322 l 382 360 b 275 360 187 359 80 359 z"},"E":{"x_min":0,"x_max":566,"ha":566,"o":"m 587 342 b 549 247 496 170 436 118 b 375 65 308 36 242 35 b -5 35 78 564 306 589 b 340 584 377 582 419 582 b 426 582 426 596 419 596 b 237 597 177 688 185 782 b 194 880 287 977 377 986 b 412 990 447 980 477 950 b 497 930 510 901 512 860 b 513 854 527 855 526 861 b 524 905 509 938 487 960 b 459 988 419 1001 375 1000 b 230 999 109 893 92 788 b 80 710 124 633 257 599 b -57 541 -108 23 241 21 b 317 21 389 58 445 107 b 507 161 561 239 601 337 z"},"s":{"x_min":0,"x_max":268,"ha":268,"o":"m 283 317 l 268 317 b 259 258 196 236 146 220 b 108 278 19 335 17 412 b 16 445 36 463 59 465 b 84 466 112 444 113 394 l 127 395 b 126 452 92 478 56 479 b 20 480 -20 455 -32 412 b -53 335 25 254 64 194 b 10 178 -49 125 -33 59 b -24 24 11 0 55 0 b 169 0 217 95 153 207 b 213 227 275 253 283 317 z m 55 13 b 18 13 -10 33 -18 61 b -33 121 25 167 72 181 b 115 111 163 14 55 13 z"},">":{"x_min":0,"x_max":774,"ha":774,"o":"m 519 318 b 551 343 541 362 508 380 b 405 436 296 488 191 542 l 178 498 b 279 447 382 397 480 344 b 389 274 301 200 212 127 l 247 99 b 337 172 427 248 519 318 z"},"l":{"x_min":0,"x_max":280,"ha":280,"o":"m 280 317 b 260 185 212 12 122 18 b 53 22 92 406 92 434 b 187 543 276 704 281 851 b 283 920 270 998 208 1000 b 14 1006 -15 475 -15 310 b -15 173 5 0 114 0 b 226 0 276 179 295 317 z m 209 985 b 259 986 269 914 266 850 b 261 709 182 563 93 457 b 95 539 108 982 209 985 z"},"8":{"x_min":0,"x_max":570,"ha":570,"o":"m 520 660 b 586 780 547 944 388 948 b 229 952 95 821 150 659 b 165 614 194 567 235 523 b 165 481 79 403 34 312 b -36 172 39 1 209 0 b 477 -1 640 318 395 519 b 445 560 491 608 520 660 z m 208 17 b 53 18 39 208 122 309 b 171 370 245 417 308 456 b 539 277 433 17 208 17 z m 435 662 b 403 631 365 603 326 578 b 295 606 270 635 250 662 b 151 800 213 933 388 927 b 559 922 534 755 435 662 z"},"\\":{"x_min":0,"x_max":772,"ha":772,"o":"m 70 971 l 21 941 b 181 638 337 337 496 33 l 545 68 b 386 372 230 668 70 971 z"},"e":{"x_min":0,"x_max":422,"ha":422,"o":"m 422 317 l 422 313 b 404 209 271 19 159 18 b 88 18 69 132 66 190 b 250 216 289 449 165 451 b -76 455 -105 -6 148 0 b 277 3 419 192 437 313 l 437 317 z m 167 437 b 261 441 237 230 65 204 b 63 267 80 434 167 437 z"},"b":{"x_min":0,"x_max":557,"ha":557,"o":"m 557 317 b 554 296 546 277 535 261 b 505 222 453 202 404 194 b 432 317 401 451 289 447 b 281 447 273 445 265 443 b 183 419 125 294 89 196 b 89 263 89 339 90 417 l 91 434 b 185 543 274 704 279 851 b 282 920 268 998 206 1000 b -47 1008 -15 167 -15 0 l 92 0 l 89 154 b 123 249 186 410 268 431 b 274 432 281 433 287 433 b 331 429 330 299 307 184 b 257 179 211 171 179 145 b 148 120 137 84 144 55 b 151 25 177 1 219 0 b 315 -3 378 99 400 180 b 456 189 513 210 546 253 b 559 271 568 292 572 317 z m 207 985 b 257 986 267 914 264 850 b 259 709 180 563 91 457 b 93 539 106 982 207 985 z m 217 16 b 184 14 164 33 158 57 b 153 82 162 113 188 134 b 217 158 258 165 304 170 b 295 132 268 19 217 16 z"},"%":{"x_min":0,"x_max":783,"ha":783,"o":"m 632 968 b 464 664 296 365 128 61 l 184 40 l 685 945 z m 449 367 b 345 356 330 111 432 121 b 543 133 552 377 449 367 z m 356 648 b 466 660 476 905 372 894 b 268 883 254 638 356 648 z m 430 128 b 385 122 398 356 450 361 b 496 366 476 134 430 128 z m 374 888 b 419 893 400 661 353 655 b 309 650 321 883 374 888 z"},"m":{"x_min":0,"x_max":802,"ha":802,"o":"m 802 317 b 782 185 733 12 643 18 b 561 23 718 451 524 451 b 442 450 387 322 354 212 b 353 333 333 451 249 451 b 176 450 124 346 90 241 b 89 317 89 389 90 423 b 90 454 -8 463 -10 422 b -20 238 -12 66 -12 0 l 92 0 b 92 20 91 99 90 184 b 126 297 182 435 240 433 b 296 431 252 61 259 0 l 343 0 b 346 37 351 94 353 155 b 383 263 441 434 516 434 b 593 433 440 0 635 0 b 747 0 797 179 817 317 z"},"#":{"x_min":0,"x_max":547,"ha":547,"o":"m 398 394 l 410 492 l 480 492 l 480 506 l 411 506 l 437 726 l 378 728 b 369 654 360 579 352 505 b 316 505 280 504 244 504 l 270 726 l 211 728 b 202 653 193 578 185 503 l 86 503 l 86 489 l 183 489 b 179 457 175 424 172 392 b 143 391 114 391 86 391 l 86 377 l 170 377 b 160 294 151 218 142 134 l 202 134 b 211 215 220 296 230 378 b 265 378 301 379 337 379 l 308 133 l 368 134 l 397 380 b 424 380 452 380 480 381 l 480 395 b 452 395 425 394 398 394 z m 339 393 b 303 393 267 392 231 392 l 243 490 b 278 490 314 490 350 491 b 346 458 342 426 339 393 z"},",":{"x_min":0,"x_max":373,"ha":373,"o":"m 108 131 b 84 138 57 124 49 101 b 41 76 56 45 86 49 b 82 36 59 6 53 0 l 64 -10 b 145 82 135 123 108 131 z"},"n":{"x_min":0,"x_max":529,"ha":529,"o":"m 529 317 b 509 185 460 12 370 18 b 288 23 445 451 251 451 b 176 450 123 341 90 239 b 89 315 89 389 90 423 b 90 454 -8 463 -10 422 b -20 238 -15 66 -15 0 l 92 0 b 91 21 91 101 90 188 b 122 295 176 434 244 434 b 321 433 167 0 362 0 b 475 0 524 179 544 317 z"},"h":{"x_min":0,"x_max":550,"ha":550,"o":"m 550 317 b 531 185 482 12 392 18 b 310 23 467 451 272 451 b 179 450 120 280 89 164 b 89 239 88 327 90 417 l 91 434 b 185 543 274 704 279 851 b 282 920 268 998 206 1000 b -47 1008 -15 167 -15 0 l 92 0 l 90 108 b 114 204 178 434 265 434 b 342 433 189 0 384 0 b 496 0 546 179 565 317 z m 207 985 b 257 986 267 914 264 850 b 259 709 180 563 91 457 b 93 539 106 982 207 985 z"},"z":{"x_min":0,"x_max":545,"ha":545,"o":"m 559 317 l 545 320 b 516 167 396 57 267 -39 b 234 2 187 21 126 39 b 189 88 325 198 353 300 b 384 415 264 455 175 451 b 93 447 12 399 -1 313 l 14 313 b 25 391 102 433 175 437 b 255 441 289 383 263 305 b 233 212 117 117 48 65 b 30 52 31 43 53 35 b 114 15 175 -27 203 -86 b 109 -154 -49 -254 -90 -364 b -107 -411 -106 -463 -78 -505 b -45 -556 13 -577 69 -572 b 313 -553 406 -231 276 -51 b 407 47 529 160 559 317 z m 68 -556 b 18 -566 -39 -540 -66 -497 b -92 -459 -92 -411 -76 -369 b -38 -263 118 -164 209 -99 b 284 -273 217 -526 68 -556 z"},"B":{"x_min":0,"x_max":737,"ha":737,"o":"m 365 442 b 621 574 650 1004 319 1000 b 84 997 -3 774 0 571 b 0 556 14 557 14 571 b 12 746 100 1008 320 984 b 578 957 464 472 242 423 b 244 572 245 722 246 871 b 247 901 151 900 151 873 b 154 591 143 321 141 45 b 91 63 47 92 19 132 b 14 139 1 133 7 123 b 68 37 195 4 296 4 b 705 3 758 406 365 442 z m 295 17 b 276 17 257 19 236 21 l 242 406 b 276 410 308 418 337 429 b 623 404 595 18 295 17 z"},"K":{"x_min":0,"x_max":823,"ha":823,"o":"m 877 999 b 646 1001 591 613 434 485 b 433 636 426 789 450 885 b 572 899 608 948 594 978 b 586 995 559 1006 522 997 b 468 984 432 944 408 895 b -157 841 -26 447 157 454 l 157 468 b -8 462 -131 831 402 880 b 291 618 395 23 218 15 b 125 11 99 110 99 185 l 84 185 b 84 95 114 1 219 0 b 409 -1 433 224 434 459 b 517 407 556 -2 774 0 b 806 -1 828 19 837 49 l 824 53 b 816 29 800 13 774 14 b 677 23 638 426 461 474 b 708 589 780 985 877 985 b 902 985 919 969 931 950 l 943 957 b 928 981 907 999 877 999 z m 523 983 b 551 992 573 986 581 973 b 594 952 565 914 454 900 b 465 937 483 970 523 983 z"},"R":{"x_min":0,"x_max":607,"ha":607,"o":"m 656 0 b 648 -24 632 -40 606 -39 b 494 -28 490 357 294 416 b 608 497 683 1005 319 1000 b 84 997 -3 774 0 571 b 0 556 14 557 14 571 b 12 746 100 1008 319 984 b 578 957 464 472 242 423 b 244 572 245 722 246 871 b 247 901 151 900 151 873 b 153 596 143 270 141 0 l 237 0 b 239 114 241 290 242 406 l 260 409 b 344 371 387 -55 606 -53 b 638 -54 660 -34 669 -4 z"},"T":{"x_min":0,"x_max":716,"ha":716,"o":"m 1083 1003 b 1034 835 322 1131 75 921 b 11 867 -12 790 6 708 b 21 643 59 585 86 562 l 95 573 b 69 594 34 649 20 711 b 3 786 20 858 88 899 b 180 956 347 948 518 931 b 518 796 534 -2 379 -9 b 285 -13 260 86 260 160 l 245 160 b 245 71 275 -23 380 -24 b 678 -26 608 715 609 922 b 841 898 1061 876 1097 999 z"},"P":{"x_min":0,"x_max":461,"ha":461,"o":"m 319 1000 b 84 997 -3 774 0 571 b 0 556 14 557 14 571 b 12 746 100 1008 320 984 b 578 957 464 472 242 423 b 244 572 245 722 246 871 b 247 901 151 900 151 873 b 153 596 143 270 141 0 l 237 0 b 239 114 241 290 242 406 b 599 442 702 1005 319 1000 z"},"|":{"x_min":0,"x_max":451,"ha":451,"o":"m 199 1000 b 190 657 177 319 167 -24 l 226 -18 l 257 1003 z"},"t":{"x_min":0,"x_max":281,"ha":281,"o":"m 281 317 b 261 185 212 12 122 18 b 73 21 78 305 87 527 l 232 527 l 232 541 l 87 541 b 91 635 96 716 96 757 b 97 788 8 797 6 756 b 3 707 -4 629 -10 541 l -129 541 l -129 527 l -11 527 b -24 294 -23 0 114 0 b 227 0 276 179 296 317 z"},"M":{"x_min":0,"x_max":1022,"ha":1022,"o":"m 1022 283 b 1014 216 958 12 870 15 b 776 18 821 739 834 949 b 841 1065 771 921 735 839 b 689 734 652 624 615 514 b 576 401 542 301 514 253 b 592 525 530 692 494 954 b 492 966 491 978 490 989 b 271 960 231 14 0 14 l 1 0 b 392 0 314 849 474 968 b 432 716 460 475 488 223 b 490 209 503 215 509 221 b 543 258 582 375 628 510 b 660 605 695 708 733 798 b 713 499 693 3 868 1 b 970 -1 1027 203 1036 281 z"},"g":{"x_min":0,"x_max":502,"ha":502,"o":"m 502 317 b 488 222 433 142 367 74 b 375 221 371 352 371 428 b 370 459 276 459 277 425 l 277 403 b 249 430 216 449 176 451 b -63 460 -117 0 93 0 b 169 0 236 117 277 201 b 276 135 274 61 269 -15 b 137 -126 -93 -265 -67 -459 b -58 -528 -13 -577 59 -578 b 314 -579 355 -126 366 53 b 439 126 502 212 517 317 z m 56 -563 b -7 -563 -45 -516 -53 -457 b -78 -275 143 -138 268 -35 b 260 -152 230 -564 56 -563 z m 277 235 b 241 161 160 7 97 15 b 9 27 61 427 181 434 b 216 436 251 410 277 383 b 277 342 278 292 277 235 z"},"j":{"x_min":0,"x_max":210,"ha":210,"o":"m -236 -563 b -299 -563 -337 -516 -345 -457 b -370 -275 -149 -138 -24 -35 b -32 -152 -62 -564 -236 -563 z m 36 549 b 62 549 83 571 83 597 b 83 623 62 644 36 644 b 10 644 -11 623 -11 597 b -11 571 10 549 36 549 z m 210 317 b 196 222 141 142 75 74 b 83 221 79 352 79 428 b 78 459 -16 459 -16 425 b -15 337 -11 167 -23 -15 b -155 -126 -385 -265 -359 -459 b -350 -528 -305 -577 -233 -578 b 22 -579 63 -126 74 53 b 147 126 210 212 225 317 z"},"i":{"x_min":0,"x_max":265,"ha":265,"o":"m 265 317 b 246 185 197 12 107 18 b 40 22 80 339 89 424 b 92 459 3 460 -1 429 b -18 307 -57 0 99 0 b 211 0 261 179 280 317 z m 55 549 b 81 549 102 571 102 597 b 102 623 81 644 55 644 b 29 644 8 623 8 597 b 8 571 29 549 55 549 z"},"y":{"x_min":0,"x_max":485,"ha":485,"o":"m 485 317 b 471 222 416 142 350 74 b 358 221 354 352 354 428 b 353 459 259 459 260 425 b 260 393 260 351 261 301 b 241 211 211 119 169 65 b 144 33 123 18 106 18 b 33 20 93 367 94 423 b 94 454 -4 463 -6 422 b -11 330 -61 2 86 0 b 169 -1 226 111 260 238 b 260 162 258 75 252 -15 b 120 -126 -110 -265 -84 -459 b -75 -528 -30 -577 42 -578 b 297 -579 338 -126 349 53 b 422 126 485 212 500 317 z m 39 -563 b -24 -563 -62 -516 -70 -457 b -95 -275 126 -138 251 -35 b 243 -152 213 -564 39 -563 z"},"@":{"x_min":0,"x_max":925,"ha":925,"o":"m 513 744 b 23 735 -103 22 535 22 l 535 36 b 29 36 86 716 515 730 b 922 742 790 133 643 142 b 581 146 617 438 625 517 b 629 549 547 551 543 521 l 540 504 b 516 525 487 541 453 542 b 233 551 182 126 376 126 b 437 125 491 206 529 278 b 537 195 564 126 635 126 b 814 125 941 752 513 744 z m 528 305 b 490 233 429 133 380 140 b 299 151 346 520 457 527 b 487 528 515 509 538 488 b 532 437 525 369 528 305 z"},".":{"x_min":0,"x_max":366,"ha":366,"o":"m 77 126 b 51 126 30 105 30 79 b 30 53 51 32 77 32 b 103 32 124 53 124 79 b 124 105 103 126 77 126 z"},"p":{"x_min":0,"x_max":523,"ha":523,"o":"m 523 317 b 520 296 513 277 501 261 b 472 222 419 202 370 194 b 399 317 368 451 256 447 b 248 447 239 445 232 443 b 165 424 115 338 79 255 b 79 312 80 370 80 428 b 80 459 -15 457 -15 430 b -12 95 -28 -224 -26 -555 l 67 -555 b 72 -296 76 -42 79 215 b 114 306 169 414 235 431 b 241 432 247 433 253 433 b 298 429 297 299 273 184 b 224 179 178 171 145 145 b 114 120 103 84 110 55 b 117 25 143 1 186 0 b 282 -3 344 99 366 180 b 422 189 480 210 513 253 b 526 271 535 292 538 317 z m 183 16 b 151 14 131 33 125 57 b 119 82 128 113 154 134 b 183 158 225 165 270 170 b 262 132 235 19 183 16 z"},"X":{"x_min":0,"x_max":798,"ha":798,"o":"m 800 343 b 767 268 700 16 613 13 b 514 13 516 341 471 624 b 584 871 691 1100 765 1126 l 762 1139 b 677 1128 568 925 459 692 b 418 900 342 1065 165 1018 b -61 959 -25 625 96 581 l 101 595 b -11 643 -29 952 169 1003 b 315 1040 345 782 380 519 b 279 296 182 81 108 5 l 118 -5 b 199 58 295 244 390 447 b 423 215 468 0 609 0 b 712 0 778 259 813 337 z"},"*":{"x_min":0,"x_max":461,"ha":461,"o":"m 366 547 l 351 582 b 312 566 279 551 248 537 b 248 571 248 607 249 648 l 211 649 b 210 609 210 574 210 541 b 181 556 150 573 116 593 l 97 560 b 130 541 158 525 186 510 l 93 469 l 108 434 l 210 478 b 210 444 209 409 208 368 l 247 367 b 248 407 248 442 248 476 l 343 423 l 362 456 l 273 506 b 301 519 331 532 366 547 z"},"Y":{"x_min":0,"x_max":929,"ha":929,"o":"m 763 14 b 816 330 801 714 830 866 l 816 867 b 779 808 755 720 737 617 b 673 380 552 13 400 14 b 181 16 646 998 216 1000 b -2 1001 -50 692 49 623 l 57 635 b -33 705 25 987 216 985 b 499 981 64 1 399 0 b 540 0 652 279 722 511 b 702 361 691 192 672 38 b 500 48 282 -118 277 -294 b 274 -382 331 -464 425 -467 b 656 -477 731 -176 761 -1 b 834 -40 873 -116 893 -193 l 906 -190 b 885 -107 842 -26 763 14 z m 427 -453 b 341 -451 288 -374 291 -294 b 296 -127 507 33 670 24 b 654 -107 614 -457 427 -453 z"},"c":{"x_min":0,"x_max":423,"ha":423,"o":"m 423 317 b 408 215 274 19 160 18 b 20 18 34 430 171 437 b 242 440 259 366 253 310 l 267 308 b 275 377 253 450 172 451 b -82 455 -102 -6 149 0 b 279 3 421 197 438 317 z"},"!":{"x_min":0,"x_max":437,"ha":437,"o":"m 159 189 l 171 189 b 177 447 214 699 220 959 l 139 958 b 133 702 166 446 159 189 z m 160 133 b 134 133 113 112 113 86 b 113 60 134 39 160 39 b 186 39 207 60 207 86 b 207 112 186 133 160 133 z"},"/":{"x_min":0,"x_max":658,"ha":658,"o":"m 598 963 b 433 662 268 367 102 67 l 158 45 l 651 939 z"},"[":{"x_min":0,"x_max":538,"ha":538,"o":"m 471 978 l 471 992 b 417 992 363 992 309 991 b 286 1008 221 1003 221 980 b 224 646 197 331 199 0 l 292 0 l 292 1 b 352 1 411 2 471 2 l 471 16 b 411 16 352 16 293 15 b 299 340 314 661 316 977 b 368 977 419 978 471 978 z"},"6":{"x_min":0,"x_max":619,"ha":619,"o":"m 438 934 b 527 934 542 842 546 771 l 560 771 b 556 851 537 948 438 948 b 111 947 -132 2 238 0 b 574 -2 626 561 360 570 b 316 572 269 547 227 508 b 207 490 188 468 170 445 b 214 684 318 934 438 934 z m 236 498 b 276 534 320 557 360 556 b 510 551 428 16 240 14 b 110 13 153 341 165 412 b 185 444 210 474 236 498 z"},"r":{"x_min":0,"x_max":374,"ha":374,"o":"m 374 317 b 354 185 305 12 215 18 b 152 22 187 300 190 384 b 194 495 130 423 25 464 b 24 484 22 532 -7 531 b -18 530 -27 518 -26 495 b -25 470 -11 436 11 423 b 10 395 6 356 0 313 l 15 313 b 20 352 24 388 25 416 b 56 401 94 402 101 379 b 85 255 66 0 207 0 b 320 0 369 179 389 317 z m -5 517 b 1 517 9 506 11 472 b -17 489 -14 516 -5 517 z"},"2":{"x_min":0,"x_max":647,"ha":647,"o":"m 295 66 b 205 58 114 50 56 29 b 245 199 652 496 620 785 b 609 884 538 952 403 948 b 248 943 181 794 189 654 l 204 655 b 196 785 258 930 403 934 b 496 937 526 860 527 780 b 532 506 201 182 14 10 b 13 10 22 -1 24 0 b 69 11 176 0 285 0 b 425 0 567 20 577 134 l 562 134 b 541 88 420 77 295 66 z"},"{":{"x_min":0,"x_max":450,"ha":450,"o":"m 148 563 l 146 537 b 304 481 62 -11 345 0 l 348 36 b 221 48 390 461 198 553 b 363 637 289 962 396 969 l 399 998 b 135 1039 291 609 148 563 z"},"9":{"x_min":0,"x_max":603,"ha":603,"o":"m 362 948 b 25 953 -32 390 234 379 b 278 377 325 401 368 440 b 389 458 408 479 425 503 b 379 263 273 13 154 14 b 71 14 50 107 47 178 l 33 178 b 36 98 55 1 154 0 b 481 -2 731 943 362 948 z m 431 536 b 410 503 385 474 359 450 b 319 414 275 391 235 393 b 85 399 172 933 359 934 b 489 934 443 606 431 536 z"}," ":{"x_min":0,"x_max":311,"ha":311,"o":""},"I":{"x_min":0,"x_max":540,"ha":540,"o":"m 594 978 b 586 995 559 1006 522 997 b 468 984 432 944 408 895 b -157 841 -26 447 157 454 l 157 468 b -8 462 -131 831 402 880 b 291 618 395 23 218 15 b 125 11 99 110 99 185 l 84 185 b 84 95 114 1 219 0 b 538 -2 388 633 450 885 b 572 899 608 948 594 978 z m 454 900 b 465 937 483 970 523 983 b 551 992 573 986 581 973 b 594 952 565 914 454 900 z"},"H":{"x_min":0,"x_max":909,"ha":909,"o":"m 909 296 b 883 165 826 -6 737 4 b 692 9 698 250 715 492 l 755 490 l 755 504 b 742 505 729 506 716 506 b 732 728 757 948 760 982 l 669 987 b 665 922 633 714 620 504 b 535 499 464 486 404 465 b 413 634 467 1005 220 1000 b 45 997 -2 725 0 588 l 14 589 b 12 717 55 983 219 986 b 381 990 313 540 308 422 b 237 379 185 323 162 244 b 135 152 136 22 223 11 b 372 -7 398 345 404 450 b 462 471 533 485 619 490 b 604 240 615 -7 728 -13 b 840 -19 898 158 924 295 z m 221 26 b 155 27 151 153 176 241 b 195 312 245 366 307 405 b 305 346 291 26 221 26 z"},"4":{"x_min":0,"x_max":545,"ha":545,"o":"m 436 800 b 416 642 392 484 370 325 b 272 321 170 326 76 325 b 290 482 394 676 425 946 b 425 948 414 949 413 946 b 356 692 162 589 49 322 b 46 315 54 310 59 310 b 157 312 265 307 367 311 b 352 208 338 104 325 0 l 418 0 b 432 106 444 212 456 318 l 487 322 l 485 336 l 458 333 b 475 487 492 641 512 796 b 515 821 439 822 436 800 z"},"~":{"x_min":0,"x_max":496,"ha":496,"o":"m 264 398 b 194 303 95 513 20 392 l 32 384 b 80 457 181 246 276 390 z"},"D":{"x_min":0,"x_max":807,"ha":807,"o":"m 352 998 b 136 975 -21 768 2 555 l 16 556 b -3 763 146 962 353 984 b 748 1026 739 21 283 16 b 288 294 292 580 293 861 b 294 891 198 890 198 862 b 201 580 190 309 188 32 b 120 59 70 117 46 194 l 32 190 b 69 75 156 3 278 1 b 879 -5 887 1056 352 998 z"},"^":{"x_min":0,"x_max":716,"ha":716,"o":"m 342 827 b 321 861 301 853 279 823 b 211 727 146 626 80 528 l 122 510 b 185 603 247 700 311 791 b 370 693 433 596 494 499 l 527 531 b 465 629 401 727 342 827 z"},"0":{"x_min":0,"x_max":671,"ha":671,"o":"m 439 948 b 63 948 -66 0 274 0 b 607 0 790 947 439 948 z m 267 15 b 56 11 203 935 443 933 b 666 932 474 19 267 15 z"},"F":{"x_min":0,"x_max":707,"ha":707,"o":"m 856 942 b 854 977 811 1010 741 998 b 678 988 603 945 564 896 b 362 915 30 913 1 645 b -5 591 11 537 58 495 l 67 505 b 24 544 10 593 15 643 b 42 898 362 900 554 883 b 491 795 474 640 465 485 b 336 490 210 496 198 425 l 212 423 b 221 481 340 476 464 470 b 450 242 450 19 341 14 b 306 12 272 30 252 59 b 233 85 221 126 221 185 l 206 185 b 206 123 220 79 240 50 b 267 13 302 0 341 0 b 540 -1 552 231 555 468 b 627 467 692 472 727 497 l 719 509 b 686 485 624 480 555 481 b 557 635 555 789 600 879 b 655 873 715 862 769 871 b 830 881 857 913 856 942 z m 766 885 b 716 877 659 886 607 892 b 637 944 685 975 743 984 b 804 994 841 968 841 940 b 842 918 819 894 766 885 z"},"`":{"x_min":0,"x_max":396,"ha":396,"o":"m 125 680 b 104 707 56 703 59 683 b 72 601 136 586 174 537 l 185 546 b 158 581 152 647 125 680 z"},"k":{"x_min":0,"x_max":478,"ha":478,"o":"m 478 317 b 472 271 419 31 344 35 b 305 37 294 160 204 222 b 257 245 320 272 346 317 b 369 358 356 430 306 445 b 232 467 144 313 89 202 b 89 268 89 342 90 417 l 91 434 b 185 543 274 704 279 851 b 282 920 268 998 206 1000 b -47 1008 -15 167 -15 0 l 92 0 l 89 168 b 142 275 243 461 300 427 b 329 410 275 333 263 317 b 241 284 213 251 189 232 l 181 236 b 173 240 162 237 165 225 b 181 160 183 -1 311 0 b 431 1 481 227 493 317 z m 207 985 b 257 986 267 914 264 850 b 259 709 180 563 91 457 b 93 539 106 982 207 985 z"},"u":{"x_min":0,"x_max":544,"ha":544,"o":"m 544 317 b 524 185 475 12 385 18 b 319 22 370 331 372 423 b 372 454 274 463 272 422 b 270 382 262 316 261 248 b 227 150 170 16 93 14 b 50 16 93 373 94 423 b 95 454 -4 463 -6 422 b -11 323 -58 2 89 0 b 168 -1 225 109 261 205 b 264 99 287 0 377 0 b 490 0 539 179 559 317 z"},"]":{"x_min":0,"x_max":614,"ha":614,"o":"m 347 980 b 348 1003 283 1008 260 991 b 206 992 152 992 98 992 l 97 978 b 149 978 200 977 252 977 b 242 661 246 340 241 15 b 181 16 122 16 62 16 l 62 2 b 121 2 181 1 240 1 l 240 0 l 334 0 b 347 331 332 646 347 980 z"},"U":{"x_min":0,"x_max":1052,"ha":1052,"o":"m 1058 283 b 1050 216 993 12 905 15 b 806 18 862 810 871 976 b 872 1005 782 1011 780 977 b 778 925 769 828 763 714 b 709 500 575 13 400 14 b 181 16 646 998 216 1000 b -2 1001 -50 692 49 623 l 57 635 b -33 705 25 987 216 985 b 499 981 64 1 399 0 b 569 0 696 405 759 644 b 746 355 755 3 903 1 b 1005 -1 1062 203 1072 281 z"},"o":{"x_min":0,"x_max":521,"ha":521,"o":"m 521 317 b 512 251 424 207 363 208 b 371 323 316 447 186 451 b 166 451 145 448 129 435 b -105 378 -65 0 177 0 b 286 0 350 94 362 194 b 431 192 526 242 536 317 z m 179 16 b 61 19 30 333 114 408 b 90 320 216 228 292 204 b 289 144 260 14 179 16 z m 293 220 b 226 242 103 330 130 408 b 138 431 161 437 183 437 b 258 435 295 327 293 220 z"},"N":{"x_min":0,"x_max":749,"ha":749,"o":"m 818 999 b 553 998 588 403 588 132 b 552 384 410 802 357 976 l 353 989 b 161 943 284 13 0 13 l 3 -1 b 418 -1 244 870 341 968 b 344 592 443 365 559 80 b 600 -22 604 25 610 85 b 635 322 679 985 818 985 b 846 985 865 968 878 945 l 891 952 b 875 979 852 1000 818 999 z"},"+":{"x_min":0,"x_max":498,"ha":498,"o":"m 265 470 b 265 512 265 555 266 602 l 227 602 l 227 470 l 95 470 l 95 431 l 227 431 l 227 300 l 265 300 l 265 432 l 397 432 l 397 470 z"},"G":{"x_min":0,"x_max":790,"ha":790,"o":"m 651 55 b 657 225 637 401 654 499 l 641 505 b 604 445 588 344 575 232 b 539 163 475 105 394 103 b 203 99 211 393 231 518 b 379 492 540 549 638 663 b 694 729 723 805 718 868 b 710 963 638 1005 548 1000 b 327 987 184 779 141 564 b 42 619 9 721 15 828 l 1 829 b -6 714 31 607 138 550 b 105 362 148 81 395 89 b 471 92 532 137 572 198 b 567 155 564 110 559 66 b 403 55 229 -86 233 -251 b 234 -293 245 -325 264 -347 b 288 -376 321 -388 357 -388 b 600 -389 643 -154 651 40 b 725 9 760 -76 787 -146 l 800 -141 b 771 -65 734 24 651 55 z m 548 985 b 629 994 697 950 704 867 b 709 807 681 735 627 672 b 533 562 376 506 233 532 b 271 747 387 966 548 985 z m 356 -374 b 325 -374 295 -362 275 -338 b 258 -318 248 -289 247 -251 b 244 -95 410 40 558 52 b 546 -67 525 -373 356 -374 z"},"q":{"x_min":0,"x_max":552,"ha":552,"o":"m 567 317 l 552 317 b 534 195 446 71 345 4 b 344 36 366 347 372 428 b 375 457 288 459 284 432 b 282 423 281 412 279 400 b 250 428 216 449 174 451 b -64 460 -118 0 91 0 b 155 0 212 82 253 158 b 231 -149 231 -569 376 -562 b 429 -559 443 -497 446 -454 b 454 -340 408 -114 354 -7 b 457 62 550 191 567 317 z m 256 196 b 215 118 149 8 96 15 b 8 27 59 427 180 434 b 215 436 251 410 276 382 b 270 334 263 269 256 196 z m 432 -453 b 430 -484 418 -548 377 -548 b 306 -549 340 -64 343 -16 b 394 -115 440 -340 432 -453 z"},"d":{"x_min":0,"x_max":558,"ha":558,"o":"m 558 317 b 538 185 489 12 399 18 b 331 22 369 406 370 434 b 465 543 554 704 559 851 b 561 920 548 998 486 1000 b 320 1005 276 623 266 413 b 241 434 210 449 175 451 b -63 460 -117 0 92 0 b 165 0 228 105 270 187 b 278 116 299 0 391 0 b 504 0 553 179 573 317 z m 97 15 b 9 27 60 427 181 434 b 211 436 241 417 265 394 b 263 335 262 274 267 215 b 227 136 155 8 97 15 z m 487 985 b 537 986 546 914 544 850 b 538 709 459 563 371 457 b 373 539 385 982 487 985 z"},"1":{"x_min":0,"x_max":382,"ha":382,"o":"m 238 931 b 145 835 49 707 37 587 l 51 585 b 63 699 158 818 245 913 l 129 0 l 223 0 b 262 312 302 623 342 935 b 344 945 265 959 238 931 z"},"5":{"x_min":0,"x_max":679,"ha":679,"o":"m 611 947 b 510 850 353 924 244 924 b 231 925 224 921 223 912 b 208 807 192 687 178 579 l 171 526 b 169 511 183 511 184 518 b 303 624 482 511 467 317 b 459 202 379 14 242 14 b 124 14 66 120 68 227 b 68 232 54 233 54 226 b 51 110 115 1 242 0 b 409 -2 550 157 562 318 b 578 538 314 637 187 540 l 192 577 b 206 685 222 804 237 911 b 291 919 435 721 622 937 b 625 940 615 951 611 947 z"}}}
